<svg width="21" height="20" viewBox="0 0 21 20" fill="none" xmlns="http://www.w3.org/2000/svg">
<path d="M20.2335 1.71239C19.825 1.62474 19.4232 1.88498 19.3357 2.29329L18.7862 4.85759C17.0366 1.87294 13.8254 0 10.3058 0C4.8856 0 0.475952 4.40959 0.475952 9.82987C0.475952 10.2474 0.814463 10.586 1.2321 10.586C1.64967 10.586 1.98824 10.2474 1.98824 9.82987C1.98824 5.24352 5.71948 1.51229 10.3058 1.51229C13.2959 1.51229 16.0232 3.10944 17.4998 5.65251L14.9788 5.11226C14.5704 5.02473 14.1685 5.2849 14.0811 5.69322C13.9936 6.10153 14.2537 6.50356 14.6621 6.59103L18.9894 7.51837C19.0629 7.53416 19.1375 7.53869 19.2111 7.53252C19.3338 7.52218 19.4533 7.48195 19.5585 7.41384C19.7269 7.30489 19.8451 7.13352 19.8872 6.93747L20.8146 2.61015C20.9019 2.20189 20.6418 1.79998 20.2335 1.71239Z" fill="#862633"/>
<path d="M19.4726 8.83877C19.0553 8.85256 18.728 9.20208 18.7418 9.61941C18.8151 11.8399 18.0194 13.956 16.5011 15.5781C14.9828 17.2 12.9238 18.1337 10.7033 18.207C10.6108 18.2101 10.5187 18.2116 10.4265 18.2116C7.52923 18.2114 4.86023 16.7067 3.3529 14.2687L5.98107 14.9735C6.38443 15.0816 6.7991 14.8423 6.90726 14.4389C7.01542 14.0355 6.77611 13.6209 6.37276 13.5126L2.09819 12.3666C1.90449 12.3147 1.69803 12.3418 1.52442 12.442C1.35069 12.5422 1.22396 12.7074 1.172 12.9011L0.0259888 17.1758C-0.0821699 17.5791 0.157134 17.9937 0.560492 18.102C0.626125 18.1196 0.69194 18.128 0.756787 18.128C1.09058 18.128 1.39612 17.9052 1.48668 17.5675L2.13085 15.1649C3.92285 17.9867 7.04209 19.724 10.4262 19.7239C10.5349 19.7239 10.6442 19.7221 10.7533 19.7185C13.3775 19.6317 15.8109 18.5284 17.6052 16.6115C19.3996 14.6946 20.34 12.1937 20.2533 9.56951C20.2396 9.15224 19.8899 8.82395 19.4726 8.83877Z" fill="#862633"/>
</svg>
